<?xml version="1.0" encoding="utf-8" standalone="no"?>
<!DOCTYPE svg PUBLIC "-//W3C//DTD SVG 1.1//EN"
  "http://www.w3.org/Graphics/SVG/1.1/DTD/svg11.dtd">
<!-- Created with matplotlib (https://matplotlib.org/) -->
<svg height="103.393032pt" version="1.1" viewBox="0 0 266.4 103.393032" width="266.4pt" xmlns="http://www.w3.org/2000/svg" xmlns:xlink="http://www.w3.org/1999/xlink">
 <metadata>
  <rdf:RDF xmlns:cc="http://creativecommons.org/ns#" xmlns:dc="http://purl.org/dc/elements/1.1/" xmlns:rdf="http://www.w3.org/1999/02/22-rdf-syntax-ns#">
   <cc:Work>
    <dc:type rdf:resource="http://purl.org/dc/dcmitype/StillImage"/>
    <dc:date>2021-09-30T13:25:40.741394</dc:date>
    <dc:format>image/svg+xml</dc:format>
    <dc:creator>
     <cc:Agent>
      <dc:title>Matplotlib v3.3.2, https://matplotlib.org/</dc:title>
     </cc:Agent>
    </dc:creator>
   </cc:Work>
  </rdf:RDF>
 </metadata>
 <defs>
  <style type="text/css">*{stroke-linecap:butt;stroke-linejoin:round;}</style>
 </defs>
 <g id="figure_1">
  <g id="patch_1">
   <path d="M 0 103.393032 
L 266.4 103.393032 
L 266.4 0 
L 0 0 
z
" style="fill:none;"/>
  </g>
  <g id="axes_1">
   <g id="patch_2">
    <path clip-path="url(#p63967ea980)" d="M 91.2 73.176816 
L 175.2 73.176816 
L 175.2 82.517356 
L 91.2 82.517356 
z
" style="fill:url(#hb516877ede);stroke:#808080;stroke-linejoin:miter;"/>
   </g>
   <g id="patch_3">
    <path clip-path="url(#p63967ea980)" d="M 72.202075 47.825465 
Q 75.702698 47.825465 79.203321 47.825465 
L 79.203321 44.825465 
Q 84.202136 47.325465 89.200951 49.825465 
Q 84.202136 52.325465 79.203321 54.825465 
L 79.203321 51.825465 
Q 75.702698 51.825465 72.202075 51.825465 
L 72.202075 47.825465 
z
" style="fill:#1f77b4;stroke:#000000;stroke-linecap:round;"/>
   </g>
   <g id="patch_4">
    <path clip-path="url(#p63967ea980)" d="M 177.202075 47.825465 
Q 180.702698 47.825465 184.203321 47.825465 
L 184.203321 44.825465 
Q 189.202136 47.325465 194.200951 49.825465 
Q 189.202136 52.325465 184.203321 54.825465 
L 184.203321 51.825465 
Q 180.702698 51.825465 177.202075 51.825465 
L 177.202075 47.825465 
z
" style="fill:#1f77b4;stroke:#000000;stroke-linecap:round;"/>
   </g>
   <g id="line2d_1">
    <path clip-path="url(#p63967ea980)" d="M 175.2 73.176816 
L 175.2 26.474113 
L 91.2 26.474113 
L 91.2 73.176816 
" style="fill:none;stroke:#000000;stroke-linecap:square;stroke-width:1.5;"/>
   </g>
   <g id="text_1">
    <!-- $Q_x(x)$ -->
    <g transform="translate(42 52.58484)scale(0.1 -0.1)">
     <defs>
      <path d="M 36.078125 -1.3125 
Q 35.546875 -1.375 34.953125 -1.390625 
Q 34.375 -1.421875 33.203125 -1.421875 
Q 19.53125 -1.421875 11.8125 6.421875 
Q 4.109375 14.265625 4.109375 28.078125 
Q 4.109375 36.234375 7.0625 44.4375 
Q 10.015625 52.640625 15.28125 59.1875 
Q 21.390625 66.703125 29.03125 70.453125 
Q 36.671875 74.21875 45.90625 74.21875 
Q 59.28125 74.21875 66.984375 66.328125 
Q 74.703125 58.453125 74.703125 44.828125 
Q 74.703125 30.125 66.640625 17.921875 
Q 58.59375 5.71875 45.609375 0.6875 
L 55.515625 -12.890625 
L 44.484375 -12.890625 
z
M 45.609375 66.21875 
Q 37.5 66.21875 31.296875 62.28125 
Q 25.09375 58.34375 20.515625 50.296875 
Q 17.578125 45.171875 16.03125 39.40625 
Q 14.5 33.640625 14.5 27.78125 
Q 14.5 17.625 19.359375 12.109375 
Q 24.21875 6.59375 33.109375 6.59375 
Q 41.109375 6.59375 47.375 10.5625 
Q 53.65625 14.546875 58.109375 22.40625 
Q 61.078125 27.6875 62.640625 33.46875 
Q 64.203125 39.265625 64.203125 45.015625 
Q 64.203125 55.125 59.3125 60.671875 
Q 54.4375 66.21875 45.609375 66.21875 
z
" id="DejaVuSans-Oblique-81"/>
      <path d="M 60.015625 54.6875 
L 34.90625 27.875 
L 50.296875 0 
L 39.984375 0 
L 28.421875 21.6875 
L 8.296875 0 
L -2.59375 0 
L 24.3125 28.8125 
L 10.015625 54.6875 
L 20.3125 54.6875 
L 30.8125 34.90625 
L 49.125 54.6875 
z
" id="DejaVuSans-Oblique-120"/>
      <path d="M 31 75.875 
Q 24.46875 64.65625 21.28125 53.65625 
Q 18.109375 42.671875 18.109375 31.390625 
Q 18.109375 20.125 21.3125 9.0625 
Q 24.515625 -2 31 -13.1875 
L 23.1875 -13.1875 
Q 15.875 -1.703125 12.234375 9.375 
Q 8.59375 20.453125 8.59375 31.390625 
Q 8.59375 42.28125 12.203125 53.3125 
Q 15.828125 64.359375 23.1875 75.875 
z
" id="DejaVuSans-40"/>
      <path d="M 8.015625 75.875 
L 15.828125 75.875 
Q 23.140625 64.359375 26.78125 53.3125 
Q 30.421875 42.28125 30.421875 31.390625 
Q 30.421875 20.453125 26.78125 9.375 
Q 23.140625 -1.703125 15.828125 -13.1875 
L 8.015625 -13.1875 
Q 14.5 -2 17.703125 9.0625 
Q 20.90625 20.125 20.90625 31.390625 
Q 20.90625 42.671875 17.703125 53.65625 
Q 14.5 64.65625 8.015625 75.875 
z
" id="DejaVuSans-41"/>
     </defs>
     <use transform="translate(0 0.125)" xlink:href="#DejaVuSans-Oblique-81"/>
     <use transform="translate(78.710938 -16.28125)scale(0.7)" xlink:href="#DejaVuSans-Oblique-120"/>
     <use transform="translate(122.871094 0.125)" xlink:href="#DejaVuSans-40"/>
     <use transform="translate(161.884766 0.125)" xlink:href="#DejaVuSans-Oblique-120"/>
     <use transform="translate(221.064453 0.125)" xlink:href="#DejaVuSans-41"/>
    </g>
   </g>
   <g id="text_2">
    <!-- $Q_x(x+\Delta x)$ -->
    <g transform="translate(198.3 52.58484)scale(0.1 -0.1)">
     <defs>
      <path d="M 46 62.703125 
L 46 35.5 
L 73.1875 35.5 
L 73.1875 27.203125 
L 46 27.203125 
L 46 0 
L 37.796875 0 
L 37.796875 27.203125 
L 10.59375 27.203125 
L 10.59375 35.5 
L 37.796875 35.5 
L 37.796875 62.703125 
z
" id="DejaVuSans-43"/>
      <path d="M 34.1875 63.1875 
L 14.15625 8.203125 
L 54.25 8.203125 
z
M 0.78125 0 
L 28.609375 72.90625 
L 39.796875 72.90625 
L 67.578125 0 
z
" id="DejaVuSans-916"/>
     </defs>
     <use transform="translate(0 0.125)" xlink:href="#DejaVuSans-Oblique-81"/>
     <use transform="translate(78.710938 -16.28125)scale(0.7)" xlink:href="#DejaVuSans-Oblique-120"/>
     <use transform="translate(122.871094 0.125)" xlink:href="#DejaVuSans-40"/>
     <use transform="translate(161.884766 0.125)" xlink:href="#DejaVuSans-Oblique-120"/>
     <use transform="translate(240.546875 0.125)" xlink:href="#DejaVuSans-43"/>
     <use transform="translate(343.818359 0.125)" xlink:href="#DejaVuSans-916"/>
     <use transform="translate(412.226562 0.125)" xlink:href="#DejaVuSans-Oblique-120"/>
     <use transform="translate(471.40625 0.125)" xlink:href="#DejaVuSans-41"/>
    </g>
   </g>
   <g id="patch_5">
    <path d="M 174.081966 94.193032 
Q 133.2 94.193032 92.318034 94.193032 
" style="fill:none;stroke:#000000;stroke-linecap:round;"/>
    <path d="M 170.081966 92.193032 
L 174.081966 94.193032 
L 170.081966 96.193032 
" style="fill:none;stroke:#000000;stroke-linecap:round;"/>
    <path d="M 96.318034 96.193032 
L 92.318034 94.193032 
L 96.318034 92.193032 
" style="fill:none;stroke:#000000;stroke-linecap:round;"/>
   </g>
   <g id="text_3">
    <!-- $\Delta x$ -->
    <g transform="translate(133.2 91.857897)scale(0.1 -0.1)">
     <use transform="translate(0 0.09375)" xlink:href="#DejaVuSans-916"/>
     <use transform="translate(68.408203 0.09375)" xlink:href="#DejaVuSans-Oblique-120"/>
    </g>
   </g>
   <g id="patch_6">
    <path d="M 112.2 25.356079 
Q 112.2 21.803843 112.2 17.133573 
" style="fill:none;stroke:#000000;stroke-linecap:round;"/>
    <path d="M 114.2 21.356079 
L 112.2 25.356079 
L 110.2 21.356079 
" style="fill:none;stroke:#000000;stroke-linecap:round;"/>
   </g>
   <g id="patch_7">
    <path d="M 133.2 25.356079 
Q 133.2 21.803843 133.2 17.133573 
" style="fill:none;stroke:#000000;stroke-linecap:round;"/>
    <path d="M 135.2 21.356079 
L 133.2 25.356079 
L 131.2 21.356079 
" style="fill:none;stroke:#000000;stroke-linecap:round;"/>
   </g>
   <g id="patch_8">
    <path d="M 154.2 25.356079 
Q 154.2 21.803843 154.2 17.133573 
" style="fill:none;stroke:#000000;stroke-linecap:round;"/>
    <path d="M 156.2 21.356079 
L 154.2 25.356079 
L 152.2 21.356079 
" style="fill:none;stroke:#000000;stroke-linecap:round;"/>
   </g>
   <g id="text_4">
    <!-- $N$ -->
    <g transform="translate(129.45 14.798438)scale(0.1 -0.1)">
     <defs>
      <path d="M 16.890625 72.90625 
L 30.171875 72.90625 
L 50.296875 10.40625 
L 62.5 72.90625 
L 72.125 72.90625 
L 57.90625 0 
L 44.578125 0 
L 24.515625 62.890625 
L 12.3125 0 
L 2.6875 0 
z
" id="DejaVuSans-Oblique-78"/>
     </defs>
     <use transform="translate(0 0.09375)" xlink:href="#DejaVuSans-Oblique-78"/>
    </g>
   </g>
  </g>
 </g>
 <defs>
  <clipPath id="p63967ea980">
   <rect height="86.4" width="252" x="7.2" y="7.793032"/>
  </clipPath>
 </defs>
 <defs>
  <pattern height="72" id="hb516877ede" patternUnits="userSpaceOnUse" width="72" x="0" y="0">
   <rect fill="none" height="73" width="73" x="0" y="0"/>
   <path d="M -36 36 
L 36 -36 
M -32 40 
L 40 -32 
M -28 44 
L 44 -28 
M -24 48 
L 48 -24 
M -20 52 
L 52 -20 
M -16 56 
L 56 -16 
M -12 60 
L 60 -12 
M -8 64 
L 64 -8 
M -4 68 
L 68 -4 
M 0 72 
L 72 0 
M 4 76 
L 76 4 
M 8 80 
L 80 8 
M 12 84 
L 84 12 
M 16 88 
L 88 16 
M 20 92 
L 92 20 
M 24 96 
L 96 24 
M 28 100 
L 100 28 
M 32 104 
L 104 32 
M 36 108 
L 108 36 
M -36 36 
L 36 108 
M -32 32 
L 40 104 
M -28 28 
L 44 100 
M -24 24 
L 48 96 
M -20 20 
L 52 92 
M -16 16 
L 56 88 
M -12 12 
L 60 84 
M -8 8 
L 64 80 
M -4 4 
L 68 76 
M 0 0 
L 72 72 
M 4 -4 
L 76 68 
M 8 -8 
L 80 64 
M 12 -12 
L 84 60 
M 16 -16 
L 88 56 
M 20 -20 
L 92 52 
M 24 -24 
L 96 48 
M 28 -28 
L 100 44 
M 32 -32 
L 104 40 
M 36 -36 
L 108 36 
" style="fill:#808080;stroke:#808080;stroke-linecap:butt;stroke-linejoin:miter;stroke-width:1.0;"/>
  </pattern>
 </defs>
</svg>
