<?xml version="1.0" encoding="utf-8" standalone="no"?>
<!DOCTYPE svg PUBLIC "-//W3C//DTD SVG 1.1//EN"
  "http://www.w3.org/Graphics/SVG/1.1/DTD/svg11.dtd">
<!-- Created with matplotlib (https://matplotlib.org/) -->
<svg height="100.839062pt" version="1.1" viewBox="0 0 266.4 100.839062" width="266.4pt" xmlns="http://www.w3.org/2000/svg" xmlns:xlink="http://www.w3.org/1999/xlink">
 <metadata>
  <rdf:RDF xmlns:cc="http://creativecommons.org/ns#" xmlns:dc="http://purl.org/dc/elements/1.1/" xmlns:rdf="http://www.w3.org/1999/02/22-rdf-syntax-ns#">
   <cc:Work>
    <dc:type rdf:resource="http://purl.org/dc/dcmitype/StillImage"/>
    <dc:date>2021-11-06T13:04:42.578673</dc:date>
    <dc:format>image/svg+xml</dc:format>
    <dc:creator>
     <cc:Agent>
      <dc:title>Matplotlib v3.3.2, https://matplotlib.org/</dc:title>
     </cc:Agent>
    </dc:creator>
   </cc:Work>
  </rdf:RDF>
 </metadata>
 <defs>
  <style type="text/css">*{stroke-linecap:butt;stroke-linejoin:round;}</style>
 </defs>
 <g id="figure_1">
  <g id="patch_1">
   <path d="M 0 100.839062 
L 266.4 100.839062 
L 266.4 0 
L 0 0 
z
" style="fill:none;"/>
  </g>
  <g id="axes_1">
   <g id="patch_2">
    <path clip-path="url(#p176efd2774)" d="M 54.45 74.4 
L 243.45 74.4 
L 243.45 84 
L 54.45 84 
z
" style="fill:url(#h2f1912dfa5);stroke:#808080;stroke-linejoin:miter;"/>
   </g>
   <g id="line2d_1">
    <path clip-path="url(#p176efd2774)" d="M 54.45 21.425455 
L 56.359091 21.432667 
L 58.268182 21.443727 
L 60.177273 21.458633 
L 62.086364 21.477385 
L 63.995455 21.499985 
L 65.904545 21.526431 
L 67.813636 21.556724 
L 69.722727 21.590864 
L 71.631818 21.62885 
L 73.540909 21.670684 
L 75.45 21.716364 
L 77.359091 21.76589 
L 79.268182 21.819264 
L 81.177273 21.876484 
L 83.086364 21.937551 
L 84.995455 22.002464 
L 86.904545 22.071225 
L 88.813636 22.143832 
L 90.722727 22.220285 
L 92.631818 22.300586 
L 94.540909 22.384733 
L 96.45 22.472727 
L 98.359091 22.564568 
L 100.268182 22.660255 
L 102.177273 22.75979 
L 104.086364 22.863171 
L 105.995455 22.970398 
L 107.904545 23.081473 
L 109.813636 23.196394 
L 111.722727 23.315162 
L 113.631818 23.437776 
L 115.540909 23.564237 
L 117.45 23.694545 
L 119.359091 23.8287 
L 121.268182 23.966702 
L 123.177273 24.10855 
L 125.086364 24.254245 
L 126.995455 24.403787 
L 128.904545 24.557175 
L 130.813636 24.71441 
L 132.722727 24.875492 
L 134.631818 25.040421 
L 136.540909 25.209196 
L 138.45 25.381818 
L 140.359091 25.558287 
L 142.268182 25.738603 
L 144.177273 25.922765 
L 146.086364 26.110774 
L 147.995455 26.30263 
L 149.904545 26.498332 
L 151.813636 26.697881 
L 153.722727 26.901277 
L 155.631818 27.10852 
L 157.540909 27.319609 
L 159.45 27.534545 
L 161.359091 27.753328 
L 163.268182 27.975958 
L 165.177273 28.202434 
L 167.086364 28.432757 
L 168.995455 28.666927 
L 170.904545 28.904944 
L 172.813636 29.146807 
L 174.722727 29.392517 
L 176.631818 29.642074 
L 178.540909 29.895477 
L 180.45 30.152727 
L 182.359091 30.413824 
L 184.268182 30.678768 
L 186.177273 30.947558 
L 188.086364 31.220195 
L 189.995455 31.496679 
L 191.904545 31.77701 
L 193.813636 32.061187 
L 195.722727 32.349211 
L 197.631818 32.641082 
L 199.540909 32.936799 
L 201.45 33.236364 
L 203.359091 33.539775 
L 205.268182 33.847032 
L 207.177273 34.158137 
L 209.086364 34.473088 
L 210.995455 34.791886 
L 212.904545 35.11453 
L 214.813636 35.441022 
L 216.722727 35.77136 
L 218.631818 36.105545 
L 220.540909 36.443576 
L 222.45 36.785455 
L 224.359091 37.13118 
L 226.268182 37.480751 
L 228.177273 37.83417 
L 230.086364 38.191435 
L 231.995455 38.552547 
L 233.904545 38.917506 
L 235.813636 39.286311 
L 237.722727 39.658963 
L 239.631818 40.035462 
L 241.540909 40.415808 
L 243.45 40.8 
" style="fill:none;stroke:#1f77b4;stroke-linecap:square;stroke-width:1.5;"/>
   </g>
   <g id="line2d_2">
    <defs>
     <path d="M 0 1.5 
C 0.397805 1.5 0.77937 1.341951 1.06066 1.06066 
C 1.341951 0.77937 1.5 0.397805 1.5 0 
C 1.5 -0.397805 1.341951 -0.77937 1.06066 -1.06066 
C 0.77937 -1.341951 0.397805 -1.5 0 -1.5 
C -0.397805 -1.5 -0.77937 -1.341951 -1.06066 -1.06066 
C -1.341951 -0.77937 -1.5 -0.397805 -1.5 0 
C -1.5 0.397805 -1.341951 0.77937 -1.06066 1.06066 
C -0.77937 1.341951 -0.397805 1.5 0 1.5 
z
" id="mf2aeb0d1ac" style="stroke:#1f77b4;"/>
    </defs>
    <g clip-path="url(#p176efd2774)">
     <use style="fill:#1f77b4;stroke:#1f77b4;" x="133.2" xlink:href="#mf2aeb0d1ac" y="24.916364"/>
    </g>
   </g>
   <g id="line2d_3">
    <defs>
     <path d="M 0 1.5 
C 0.397805 1.5 0.77937 1.341951 1.06066 1.06066 
C 1.341951 0.77937 1.5 0.397805 1.5 0 
C 1.5 -0.397805 1.341951 -0.77937 1.06066 -1.06066 
C 0.77937 -1.341951 0.397805 -1.5 0 -1.5 
C -0.397805 -1.5 -0.77937 -1.341951 -1.06066 -1.06066 
C -1.341951 -0.77937 -1.5 -0.397805 -1.5 0 
C -1.5 0.397805 -1.341951 0.77937 -1.06066 1.06066 
C -0.77937 1.341951 -0.397805 1.5 0 1.5 
z
" id="mce3353ff8a" style="stroke:#000000;"/>
    </defs>
    <g clip-path="url(#p176efd2774)">
     <use style="stroke:#000000;" x="133.2" xlink:href="#mce3353ff8a" y="74.4"/>
    </g>
   </g>
   <g id="line2d_4">
    <path clip-path="url(#p176efd2774)" d="M 133.2 74.4 
L 133.2 24.916364 
" style="fill:none;stroke:#000000;stroke-dasharray:5.55,2.4;stroke-dashoffset:0;stroke-width:1.5;"/>
   </g>
   <g id="text_1">
    <!-- $h$ -->
    <g transform="translate(136.35 23.04)scale(0.1 -0.1)">
     <defs>
      <path d="M 55.71875 33.015625 
L 49.3125 0 
L 40.28125 0 
L 46.6875 32.671875 
Q 47.125 34.96875 47.359375 36.71875 
Q 47.609375 38.484375 47.609375 39.5 
Q 47.609375 43.609375 45.015625 45.890625 
Q 42.4375 48.1875 37.796875 48.1875 
Q 30.5625 48.1875 25.265625 43.296875 
Q 19.96875 38.421875 18.40625 30.328125 
L 12.5 0 
L 3.515625 0 
L 18.3125 75.984375 
L 27.296875 75.984375 
L 21.484375 46.09375 
Q 24.90625 50.6875 30.21875 53.34375 
Q 35.546875 56 41.40625 56 
Q 48.640625 56 52.609375 52.09375 
Q 56.59375 48.1875 56.59375 41.109375 
Q 56.59375 39.359375 56.375 37.359375 
Q 56.15625 35.359375 55.71875 33.015625 
z
" id="DejaVuSans-Oblique-104"/>
     </defs>
     <use transform="translate(0 0.015625)" xlink:href="#DejaVuSans-Oblique-104"/>
    </g>
   </g>
   <g id="text_2">
    <!-- $z_b$ -->
    <g transform="translate(136.35 71.52)scale(0.1 -0.1)">
     <defs>
      <path d="M 11.625 54.6875 
L 54.296875 54.6875 
L 52.6875 46.484375 
L 11.53125 7.171875 
L 45.515625 7.171875 
L 44.09375 0 
L -0.296875 0 
L 1.3125 8.203125 
L 42.484375 47.515625 
L 10.203125 47.515625 
z
" id="DejaVuSans-Oblique-122"/>
      <path d="M 49.515625 33.40625 
Q 49.515625 40.484375 46.265625 44.484375 
Q 43.015625 48.484375 37.3125 48.484375 
Q 33.15625 48.484375 29.515625 46.453125 
Q 25.875 44.4375 23.1875 40.578125 
Q 20.359375 36.53125 18.71875 31.171875 
Q 17.09375 25.828125 17.09375 20.515625 
Q 17.09375 13.765625 20.28125 9.9375 
Q 23.484375 6.109375 29.109375 6.109375 
Q 33.34375 6.109375 36.953125 8.078125 
Q 40.578125 10.0625 43.3125 13.921875 
Q 46.09375 17.921875 47.796875 23.234375 
Q 49.515625 28.5625 49.515625 33.40625 
z
M 21.578125 46.390625 
Q 24.90625 50.875 29.90625 53.4375 
Q 34.90625 56 40.375 56 
Q 48.78125 56 53.734375 50.328125 
Q 58.6875 44.671875 58.6875 35.015625 
Q 58.6875 27.09375 55.78125 19.671875 
Q 52.875 12.25 47.515625 6.5 
Q 44 2.6875 39.40625 0.625 
Q 34.8125 -1.421875 29.78125 -1.421875 
Q 24.46875 -1.421875 20.5625 1.015625 
Q 16.65625 3.46875 14.203125 8.296875 
L 12.59375 0 
L 3.609375 0 
L 18.40625 75.984375 
L 27.390625 75.984375 
z
" id="DejaVuSans-Oblique-98"/>
     </defs>
     <use transform="translate(0 0.3125)" xlink:href="#DejaVuSans-Oblique-122"/>
     <use transform="translate(52.490234 -16.09375)scale(0.7)" xlink:href="#DejaVuSans-Oblique-98"/>
    </g>
   </g>
   <g id="patch_3">
    <path d="M 132.081966 64.8 
Q 121.3875 64.8 109.575 64.8 
" style="fill:none;stroke:#000000;stroke-linecap:round;"/>
    <path d="M 128.081966 62.8 
L 132.081966 64.8 
L 128.081966 66.8 
" style="fill:none;stroke:#000000;stroke-linecap:round;"/>
   </g>
   <g id="patch_4">
    <path d="M 132.081966 50.4 
Q 121.3875 50.4 109.575 50.4 
" style="fill:none;stroke:#000000;stroke-linecap:round;"/>
    <path d="M 128.081966 48.4 
L 132.081966 50.4 
L 128.081966 52.4 
" style="fill:none;stroke:#000000;stroke-linecap:round;"/>
   </g>
   <g id="patch_5">
    <path d="M 132.081966 36 
Q 121.3875 36 109.575 36 
" style="fill:none;stroke:#000000;stroke-linecap:round;"/>
    <path d="M 128.081966 34 
L 132.081966 36 
L 128.081966 38 
" style="fill:none;stroke:#000000;stroke-linecap:round;"/>
   </g>
   <g id="patch_6">
    <path d="M 46.575 74.796838 
Q 46.575 81.239402 46.575 88.8 
" style="fill:none;stroke:#000000;stroke-linecap:round;"/>
    <path d="M 44.575 78.796838 
L 46.575 74.796838 
L 48.575 78.796838 
" style="fill:none;stroke:#000000;stroke-linecap:round;"/>
   </g>
   <g id="text_3">
    <!-- $z$ -->
    <g transform="translate(43.925 69.6)scale(0.1 -0.1)">
     <use transform="translate(0 0.3125)" xlink:href="#DejaVuSans-Oblique-122"/>
    </g>
   </g>
   <g id="patch_7">
    <path d="M 59.203609 88.8 
Q 53.448322 88.8 46.575 88.8 
" style="fill:none;stroke:#000000;stroke-linecap:round;"/>
    <path d="M 55.203609 86.8 
L 59.203609 88.8 
L 55.203609 90.8 
" style="fill:none;stroke:#000000;stroke-linecap:round;"/>
   </g>
   <g id="text_4">
    <!-- $x$ -->
    <g transform="translate(62.325 91.559375)scale(0.1 -0.1)">
     <defs>
      <path d="M 60.015625 54.6875 
L 34.90625 27.875 
L 50.296875 0 
L 39.984375 0 
L 28.421875 21.6875 
L 8.296875 0 
L -2.59375 0 
L 24.3125 28.8125 
L 10.015625 54.6875 
L 20.3125 54.6875 
L 30.8125 34.90625 
L 49.125 54.6875 
z
" id="DejaVuSans-Oblique-120"/>
     </defs>
     <use transform="translate(0 0.3125)" xlink:href="#DejaVuSans-Oblique-120"/>
    </g>
   </g>
   <g id="text_5">
    <!-- water  -->
    <g style="fill:#1f77b4;" transform="translate(188.974264 28.533997)rotate(-350)scale(0.1 -0.1)">
     <defs>
      <path d="M 4.203125 54.6875 
L 13.1875 54.6875 
L 24.421875 12.015625 
L 35.59375 54.6875 
L 46.1875 54.6875 
L 57.421875 12.015625 
L 68.609375 54.6875 
L 77.59375 54.6875 
L 63.28125 0 
L 52.6875 0 
L 40.921875 44.828125 
L 29.109375 0 
L 18.5 0 
z
" id="DejaVuSans-119"/>
      <path d="M 34.28125 27.484375 
Q 23.390625 27.484375 19.1875 25 
Q 14.984375 22.515625 14.984375 16.5 
Q 14.984375 11.71875 18.140625 8.90625 
Q 21.296875 6.109375 26.703125 6.109375 
Q 34.1875 6.109375 38.703125 11.40625 
Q 43.21875 16.703125 43.21875 25.484375 
L 43.21875 27.484375 
z
M 52.203125 31.203125 
L 52.203125 0 
L 43.21875 0 
L 43.21875 8.296875 
Q 40.140625 3.328125 35.546875 0.953125 
Q 30.953125 -1.421875 24.3125 -1.421875 
Q 15.921875 -1.421875 10.953125 3.296875 
Q 6 8.015625 6 15.921875 
Q 6 25.140625 12.171875 29.828125 
Q 18.359375 34.515625 30.609375 34.515625 
L 43.21875 34.515625 
L 43.21875 35.40625 
Q 43.21875 41.609375 39.140625 45 
Q 35.0625 48.390625 27.6875 48.390625 
Q 23 48.390625 18.546875 47.265625 
Q 14.109375 46.140625 10.015625 43.890625 
L 10.015625 52.203125 
Q 14.9375 54.109375 19.578125 55.046875 
Q 24.21875 56 28.609375 56 
Q 40.484375 56 46.34375 49.84375 
Q 52.203125 43.703125 52.203125 31.203125 
z
" id="DejaVuSans-97"/>
      <path d="M 18.3125 70.21875 
L 18.3125 54.6875 
L 36.8125 54.6875 
L 36.8125 47.703125 
L 18.3125 47.703125 
L 18.3125 18.015625 
Q 18.3125 11.328125 20.140625 9.421875 
Q 21.96875 7.515625 27.59375 7.515625 
L 36.8125 7.515625 
L 36.8125 0 
L 27.59375 0 
Q 17.1875 0 13.234375 3.875 
Q 9.28125 7.765625 9.28125 18.015625 
L 9.28125 47.703125 
L 2.6875 47.703125 
L 2.6875 54.6875 
L 9.28125 54.6875 
L 9.28125 70.21875 
z
" id="DejaVuSans-116"/>
      <path d="M 56.203125 29.59375 
L 56.203125 25.203125 
L 14.890625 25.203125 
Q 15.484375 15.921875 20.484375 11.0625 
Q 25.484375 6.203125 34.421875 6.203125 
Q 39.59375 6.203125 44.453125 7.46875 
Q 49.3125 8.734375 54.109375 11.28125 
L 54.109375 2.78125 
Q 49.265625 0.734375 44.1875 -0.34375 
Q 39.109375 -1.421875 33.890625 -1.421875 
Q 20.796875 -1.421875 13.15625 6.1875 
Q 5.515625 13.8125 5.515625 26.8125 
Q 5.515625 40.234375 12.765625 48.109375 
Q 20.015625 56 32.328125 56 
Q 43.359375 56 49.78125 48.890625 
Q 56.203125 41.796875 56.203125 29.59375 
z
M 47.21875 32.234375 
Q 47.125 39.59375 43.09375 43.984375 
Q 39.0625 48.390625 32.421875 48.390625 
Q 24.90625 48.390625 20.390625 44.140625 
Q 15.875 39.890625 15.1875 32.171875 
z
" id="DejaVuSans-101"/>
      <path d="M 41.109375 46.296875 
Q 39.59375 47.171875 37.8125 47.578125 
Q 36.03125 48 33.890625 48 
Q 26.265625 48 22.1875 43.046875 
Q 18.109375 38.09375 18.109375 28.8125 
L 18.109375 0 
L 9.078125 0 
L 9.078125 54.6875 
L 18.109375 54.6875 
L 18.109375 46.1875 
Q 20.953125 51.171875 25.484375 53.578125 
Q 30.03125 56 36.53125 56 
Q 37.453125 56 38.578125 55.875 
Q 39.703125 55.765625 41.0625 55.515625 
z
" id="DejaVuSans-114"/>
      <path id="DejaVuSans-32"/>
     </defs>
     <use xlink:href="#DejaVuSans-119"/>
     <use x="81.787109" xlink:href="#DejaVuSans-97"/>
     <use x="143.066406" xlink:href="#DejaVuSans-116"/>
     <use x="182.275391" xlink:href="#DejaVuSans-101"/>
     <use x="243.798828" xlink:href="#DejaVuSans-114"/>
     <use x="284.912109" xlink:href="#DejaVuSans-32"/>
    </g>
    <!--  table -->
    <g style="fill:#1f77b4;" transform="translate(188.587012 39.836271)rotate(-350)scale(0.1 -0.1)">
     <defs>
      <path d="M 48.6875 27.296875 
Q 48.6875 37.203125 44.609375 42.84375 
Q 40.53125 48.484375 33.40625 48.484375 
Q 26.265625 48.484375 22.1875 42.84375 
Q 18.109375 37.203125 18.109375 27.296875 
Q 18.109375 17.390625 22.1875 11.75 
Q 26.265625 6.109375 33.40625 6.109375 
Q 40.53125 6.109375 44.609375 11.75 
Q 48.6875 17.390625 48.6875 27.296875 
z
M 18.109375 46.390625 
Q 20.953125 51.265625 25.265625 53.625 
Q 29.59375 56 35.59375 56 
Q 45.5625 56 51.78125 48.09375 
Q 58.015625 40.1875 58.015625 27.296875 
Q 58.015625 14.40625 51.78125 6.484375 
Q 45.5625 -1.421875 35.59375 -1.421875 
Q 29.59375 -1.421875 25.265625 0.953125 
Q 20.953125 3.328125 18.109375 8.203125 
L 18.109375 0 
L 9.078125 0 
L 9.078125 75.984375 
L 18.109375 75.984375 
z
" id="DejaVuSans-98"/>
      <path d="M 9.421875 75.984375 
L 18.40625 75.984375 
L 18.40625 0 
L 9.421875 0 
z
" id="DejaVuSans-108"/>
     </defs>
     <use xlink:href="#DejaVuSans-32"/>
     <use x="31.787109" xlink:href="#DejaVuSans-116"/>
     <use x="70.996094" xlink:href="#DejaVuSans-97"/>
     <use x="132.275391" xlink:href="#DejaVuSans-98"/>
     <use x="195.751953" xlink:href="#DejaVuSans-108"/>
     <use x="223.535156" xlink:href="#DejaVuSans-101"/>
    </g>
   </g>
  </g>
 </g>
 <defs>
  <clipPath id="p176efd2774">
   <rect height="86.4" width="252" x="7.2" y="7.2"/>
  </clipPath>
 </defs>
 <defs>
  <pattern height="72" id="h2f1912dfa5" patternUnits="userSpaceOnUse" width="72" x="0" y="0">
   <rect fill="none" height="73" width="73" x="0" y="0"/>
   <path d="M -36 36 
L 36 -36 
M -32 40 
L 40 -32 
M -28 44 
L 44 -28 
M -24 48 
L 48 -24 
M -20 52 
L 52 -20 
M -16 56 
L 56 -16 
M -12 60 
L 60 -12 
M -8 64 
L 64 -8 
M -4 68 
L 68 -4 
M 0 72 
L 72 0 
M 4 76 
L 76 4 
M 8 80 
L 80 8 
M 12 84 
L 84 12 
M 16 88 
L 88 16 
M 20 92 
L 92 20 
M 24 96 
L 96 24 
M 28 100 
L 100 28 
M 32 104 
L 104 32 
M 36 108 
L 108 36 
M -36 36 
L 36 108 
M -32 32 
L 40 104 
M -28 28 
L 44 100 
M -24 24 
L 48 96 
M -20 20 
L 52 92 
M -16 16 
L 56 88 
M -12 12 
L 60 84 
M -8 8 
L 64 80 
M -4 4 
L 68 76 
M 0 0 
L 72 72 
M 4 -4 
L 76 68 
M 8 -8 
L 80 64 
M 12 -12 
L 84 60 
M 16 -16 
L 88 56 
M 20 -20 
L 92 52 
M 24 -24 
L 96 48 
M 28 -28 
L 100 44 
M 32 -32 
L 104 40 
M 36 -36 
L 108 36 
" style="fill:#808080;stroke:#808080;stroke-linecap:butt;stroke-linejoin:miter;stroke-width:1.0;"/>
  </pattern>
 </defs>
</svg>
